<?xml version="1.0" encoding="UTF-8"?>
<svg version="1.1" xmlns="http://www.w3.org/2000/svg" width="540" height="360">
<path d="M0 0 C1.15462738 -0.00524185 2.30925476 -0.0104837 3.49887085 -0.0158844 C5.93120522 -0.02228858 8.36357062 -0.02098848 10.79589844 -0.01245117 C14.51813616 -0.0039184 18.23885028 -0.03276429 21.9609375 -0.06445312 C24.32812454 -0.06606471 26.6953143 -0.06548843 29.0625 -0.0625 C30.17404449 -0.07373398 31.28558899 -0.08496796 32.43081665 -0.09654236 C40.0948795 -0.02728676 40.0948795 -0.02728676 44.07177734 2.25366211 C46.6670904 5.35090219 46.9676964 7.41657768 46.8984375 11.43359375 C43.96172864 16.90194818 43.96172864 16.90194818 40.8984375 18.43359375 C39.34695119 18.53182449 37.79139639 18.56910542 36.23681641 18.57543945 C35.26886139 18.58247391 34.30090637 18.58950836 33.30361938 18.59675598 C32.25467499 18.60092026 31.20573059 18.60508453 30.125 18.609375 C27.91665711 18.63257053 25.70832374 18.65668776 23.5 18.68164062 C20.00839851 18.71679263 16.51714773 18.74611789 13.02539062 18.75952148 C9.66232594 18.77496801 6.30029316 18.81515626 2.9375 18.859375 C1.89260406 18.85746658 0.84770813 18.85555817 -0.22885132 18.85359192 C-5.84518365 18.87903406 -5.84518365 18.87903406 -10.79150391 21.24291992 C-12.41164703 23.52669737 -12.41164703 23.52669737 -12.1015625 27.05859375 C-11.48560775 30.44078257 -11.48560775 30.44078257 -9.35388184 31.62857056 C-6.78488328 32.54678113 -4.79118222 32.68505844 -2.06445312 32.68896484 C-1.06240845 32.69592377 -0.06036377 32.70288269 0.9720459 32.71005249 C2.05119263 32.70905548 3.13033936 32.70805847 4.2421875 32.70703125 C6.54427555 32.72733649 8.84635884 32.74818755 11.1484375 32.76953125 C14.76436369 32.79203296 18.38010101 32.80856389 21.99609375 32.81445312 C25.49513684 32.82405533 28.99333627 32.85794298 32.4921875 32.89453125 C33.55514038 32.88948578 34.61809326 32.88444031 35.71325684 32.87924194 C49.03243611 33.05120931 58.65175903 37.36775931 68.08984375 46.5703125 C75.90911808 54.82159093 79.71065736 64.15040304 79.96875 75.53515625 C79.48306488 87.50586597 75.20527708 97.76483793 66.8984375 106.43359375 C54.19357284 117.83735781 40.574626 118.74522488 24.20703125 118.6640625 C22.60946185 118.6628683 21.01189173 118.66241805 19.4143219 118.66267395 C16.08858766 118.66111949 12.76296266 118.65290346 9.43725586 118.6394043 C5.16659127 118.6222909 0.89604488 118.61859405 -3.37465 118.61934948 C-6.66276688 118.61907842 -9.95085774 118.61360965 -13.23896599 118.60634804 C-14.81510153 118.60316078 -16.39124002 118.60119383 -17.96737862 118.60045433 C-20.15742222 118.5982984 -22.34733731 118.58957429 -24.53735352 118.57885742 C-25.78404312 118.57504562 -27.03073273 118.57123383 -28.31520081 118.56730652 C-31.1015625 118.43359375 -31.1015625 118.43359375 -32.1015625 117.43359375 C-32.19537552 115.59241346 -32.21900204 113.74761734 -32.21508789 111.90405273 C-32.21501236 110.7229039 -32.21493683 109.54175507 -32.21485901 108.32481384 C-32.20969772 107.03942215 -32.20453644 105.75403046 -32.19921875 104.4296875 C-32.1978038 103.1215358 -32.19638885 101.81338409 -32.19493103 100.46559143 C-32.1911066 96.98196516 -32.18127696 93.49838036 -32.17022705 90.01477051 C-32.16001132 86.46232667 -32.15543306 82.90987616 -32.15039062 79.35742188 C-32.13965462 72.38279543 -32.1225791 65.40819658 -32.1015625 58.43359375 C-27.49135841 58.43359375 -24.1245239 60.89510669 -20.109375 63.0234375 C-15.71782332 65.08233381 -11.74725876 65.55575535 -6.93164062 65.59130859 C-5.42482727 65.60670181 -5.42482727 65.60670181 -3.88757324 65.62240601 C-2.8135022 65.62970734 -1.73943115 65.63700867 -0.6328125 65.64453125 C1.65235106 65.67258821 3.93750722 65.70125258 6.22265625 65.73046875 C9.81721886 65.77179122 13.41164166 65.80869025 17.00634766 65.83496094 C20.48108165 65.86254197 23.95519295 65.90839889 27.4296875 65.95703125 C28.50375854 65.96028412 29.57782959 65.96353699 30.68444824 65.96688843 C39.97761107 66.12014717 39.97761107 66.12014717 43.8984375 69.43359375 C45.99945345 72.10761405 45.89690726 73.4764406 45.7734375 76.93359375 C44.80667427 80.80064668 44.1335583 82.16026562 40.8984375 84.43359375 C35.27404144 85.79964653 29.56176843 85.56037108 23.8125 85.53125 C22.75557953 85.52983505 21.69865906 85.5284201 20.60971069 85.52696228 C17.24759034 85.52138315 13.88553759 85.50883444 10.5234375 85.49609375 C8.23828221 85.49107606 5.95312588 85.48651362 3.66796875 85.48242188 C-1.92190088 85.47142054 -7.51172025 85.45417024 -13.1015625 85.43359375 C-13.1015625 90.05359375 -13.1015625 94.67359375 -13.1015625 99.43359375 C-5.4148853 99.36458142 2.27125503 99.27654595 9.95751953 99.17114258 C12.57041452 99.13795936 15.18338005 99.10990704 17.79638672 99.0871582 C21.55987511 99.05349167 25.32272089 99.00116726 29.0859375 98.9453125 C30.24770508 98.93892258 31.40947266 98.93253265 32.60644531 98.9259491 C40.30843844 98.78742176 46.54423397 98.25417399 52.6484375 93.12109375 C57.93042156 86.81205723 60.30636296 82.10091916 60.171875 73.9375 C59.50021628 67.78702511 57.25456239 62.26498783 52.7109375 57.99609375 C45.09525396 52.47347476 37.14619561 52.017388 27.99609375 52.09765625 C25.70116903 52.08514658 23.40624714 52.07210959 21.11132812 52.05859375 C17.53253119 52.05466613 13.95401447 52.05862203 10.37524414 52.07324219 C6.89427809 52.08185311 3.41445887 52.06006803 -0.06640625 52.03515625 C-1.12399643 52.04850006 -2.18158661 52.06184387 -3.27122498 52.07559204 C-12.47132075 51.98498049 -19.50646137 49.33128514 -26.0390625 42.74609375 C-30.65427678 36.93070554 -32.48121772 30.70052204 -32.0390625 23.30859375 C-30.8265124 15.23755712 -27.500744 10.27700697 -21.39453125 4.9765625 C-14.34488718 0.23276453 -8.32626974 -0.02207043 0 0 Z " fill="#EFEFEF" transform="translate(246.1015625,137.56640625)"/>
<path d="M0 0 C0.66756317 -0.00365067 1.33512634 -0.00730133 2.0229187 -0.01106262 C4.21508782 -0.01912311 6.40650679 -0.00559059 8.59863281 0.0090332 C10.13551839 0.0095526 11.67240463 0.00903182 13.20928955 0.00752258 C16.42706249 0.00761212 19.64458397 0.01799918 22.86230469 0.03613281 C26.96188358 0.05874265 31.06109303 0.05937589 35.16071701 0.05261517 C38.335136 0.04925197 41.50947273 0.05595045 44.68387604 0.0657444 C46.1939577 0.06956208 47.70404858 0.07075905 49.21413422 0.06915855 C64.42286048 0.06646467 78.78237834 1.668137 90.46191406 12.5480957 C99.17856015 22.54975104 103.32099166 33.14994099 103.05175781 46.37231445 C102.08086658 53.09386914 100.56521829 59.516547 97.05175781 65.37231445 C93.52526998 63.67754603 90.17504541 61.72728761 86.80175781 59.74731445 C85.72410156 59.11567383 84.64644531 58.4840332 83.53613281 57.83325195 C82.71628906 57.35114258 81.89644531 56.8690332 81.05175781 56.37231445 C81.19613281 55.82704102 81.34050781 55.28176758 81.48925781 54.7199707 C83.81253228 45.28166816 84.13581785 37.95166576 79.05175781 29.37231445 C74.85296028 23.97386049 69.03753165 20.89068486 62.26269531 20.00958252 C59.13309318 19.87920398 56.02754127 19.86987824 52.89550781 19.91137695 C51.75319702 19.9122934 50.61088623 19.91320984 49.43395996 19.91415405 C47.03031228 19.9201683 44.62667133 19.9358482 42.22314453 19.96069336 C38.56286712 19.99720364 34.90360469 20.0017121 31.24316406 20.0012207 C28.89810331 20.01105354 26.55304936 20.02271126 24.20800781 20.03637695 C23.12338257 20.0386026 22.03875732 20.04082825 20.92126465 20.04312134 C12.86444202 20.1427971 5.15536632 20.62609813 -1.82324219 24.99731445 C-5.6534445 27.37231445 -5.6534445 27.37231445 -8.94824219 27.37231445 C-8.97519229 24.43475326 -8.99505693 21.49743891 -9.01074219 18.55981445 C-9.02331055 17.30974609 -9.02331055 17.30974609 -9.03613281 16.03442383 C-9.03935547 15.23198242 -9.04257813 14.42954102 -9.04589844 13.6027832 C-9.05113525 12.86439209 -9.05637207 12.12600098 -9.06176758 11.36523438 C-8.94824219 9.37231445 -8.94824219 9.37231445 -7.94824219 6.37231445 C-9.59824219 6.04231445 -11.24824219 5.71231445 -12.94824219 5.37231445 C-12.94824219 4.71231445 -12.94824219 4.05231445 -12.94824219 3.37231445 C-8.43230005 0.77312586 -5.19219101 -0.00272328 0 0 Z " fill="#F2F3F3" transform="translate(222.9482421875,103.627685546875)"/>
<path d="M0 0 C1.02543915 -0.00065712 1.02543915 -0.00065712 2.07159424 -0.00132751 C4.31186345 0.00074818 6.55136684 0.02401993 8.79150391 0.04760742 C10.35234163 0.05320775 11.91318465 0.05747579 13.47402954 0.06047058 C17.56763453 0.07188504 21.66091652 0.10132251 25.75439453 0.13458252 C29.9372928 0.16535705 34.12024363 0.17899164 38.30322266 0.1940918 C46.49998491 0.22619586 54.69648539 0.27735057 62.89306641 0.34057617 C62.89306641 0.67057617 62.89306641 1.00057617 62.89306641 1.34057617 C39.2364612 2.63890978 15.57610078 2.44165281 -8.10693359 2.34057617 C-8.10693359 3.66057617 -8.10693359 4.98057617 -8.10693359 6.34057617 C-9.75693359 6.01057617 -11.40693359 5.68057617 -13.10693359 5.34057617 C-13.10693359 4.68057617 -13.10693359 4.02057617 -13.10693359 3.34057617 C-8.53310651 0.69430572 -5.26342373 -0.02850229 0 0 Z " fill="#7C7D7D" transform="translate(223.10693359375,103.659423828125)"/>
<path d="M0 0 C0.33 0 0.66 0 1 0 C1 4.29 1 8.58 1 13 C1.66 13.33 2.32 13.66 3 14 C2.01 15.485 2.01 15.485 1 17 C0.34 17 -0.32 17 -1 17 C-1.02691685 14.54159395 -1.04679802 12.08348118 -1.0625 9.625 C-1.07087891 8.92632812 -1.07925781 8.22765625 -1.08789062 7.5078125 C-1.11328125 2.2265625 -1.11328125 2.2265625 0 0 Z " fill="#99999B" transform="translate(215,111)"/>
<path d="M0 0 C0 1.65 0 3.3 0 5 C-1.65 4.67 -3.3 4.34 -5 4 C-5 3.34 -5 2.68 -5 2 C-2 0 -2 0 0 0 Z " fill="#0C0C0F" transform="translate(215,105)"/>
</svg>
